<?xml version="1.0" standalone="no"?>
<!DOCTYPE svg PUBLIC "-//W3C//DTD SVG 20010904//EN"
 "http://www.w3.org/TR/2001/REC-SVG-20010904/DTD/svg10.dtd">
<svg version="1.0" xmlns="http://www.w3.org/2000/svg"
 width="196.000000pt" height="196.000000pt" viewBox="0 0 196.000000 196.000000"
 preserveAspectRatio="xMidYMid meet">
<metadata>
Created by potrace 1.14, written by Peter Selinger 2001-2017
</metadata>
<g transform="translate(0.000000,196.000000) scale(0.100000,-0.100000)"
fill="#000000" stroke="none">
<path d="M938 1745 c-2 -2 -19 -5 -38 -8 -46 -6 -90 -17 -115 -27 -42 -17
-160 -74 -165 -79 -3 -3 -25 -20 -50 -36 -65 -43 -209 -193 -263 -272 -37 -55
-127 -216 -126 -226 0 -2 -7 -24 -21 -67 -22 -62 -33 -120 -36 -180 -2 -36 -4
-65 -4 -65 -1 0 -3 -17 -4 -37 -1 -21 2 -38 5 -38 4 0 6 -8 5 -17 -2 -9 6 -38
16 -65 10 -26 19 -51 19 -56 4 -18 14 -39 31 -56 10 -11 18 -24 18 -29 0 -5
11 -18 25 -29 14 -11 22 -25 18 -31 -3 -7 -3 -9 1 -5 10 8 36 -14 29 -25 -2
-4 -1 -6 4 -5 15 5 83 -44 77 -54 -4 -7 -2 -8 4 -4 15 9 113 -45 105 -58 -4
-6 1 -5 10 3 14 11 18 11 22 -1 4 -9 18 -12 47 -10 32 4 39 2 32 -9 -7 -12 -5
-12 9 0 11 9 17 10 17 2 0 -6 5 -11 11 -11 5 0 7 4 4 10 -3 5 13 9 39 8 31 0
43 -4 39 -12 -4 -6 1 -5 10 3 11 9 17 10 17 2 0 -6 5 -11 11 -11 5 0 7 5 4 10
-3 6 0 10 9 10 8 0 17 -6 19 -12 4 -10 6 -10 6 0 1 14 31 17 31 2 0 -5 5 -10
11 -10 5 0 7 5 3 11 -10 16 39 7 54 -11 11 -13 11 -13 7 1 -5 13 4 16 60 16
68 1 88 -8 58 -26 -10 -6 -13 -11 -7 -11 15 0 36 25 27 33 -3 4 -1 7 5 7 7 0
12 -6 12 -12 0 -9 4 -8 10 2 8 13 13 13 31 2 11 -8 18 -9 14 -3 -3 6 1 11 10
11 9 0 14 -4 11 -8 -3 -5 1 -9 9 -9 8 0 12 4 9 9 -3 4 4 8 15 8 27 0 35 -17
14 -29 -10 -6 -13 -11 -7 -11 15 0 36 25 28 33 -4 4 14 6 39 5 26 0 45 -3 43
-7 -3 -4 4 -7 14 -7 10 0 16 4 14 8 -3 4 4 8 15 8 27 0 35 -17 14 -29 -10 -6
-13 -11 -7 -11 15 0 36 25 28 33 -4 4 14 6 39 5 26 0 45 -3 43 -7 -3 -4 4 -7
14 -7 10 0 16 4 14 8 -3 4 4 8 15 8 12 0 21 -4 21 -10 0 -5 5 -10 11 -10 5 0
7 5 3 11 -5 8 4 10 30 7 20 -2 36 0 36 6 0 5 3 7 6 3 4 -3 13 1 21 9 8 8 18
12 23 9 4 -3 11 2 14 11 3 9 12 14 19 11 6 -2 22 7 34 20 12 13 26 24 30 25 8
2 59 45 75 63 40 46 58 72 58 83 0 6 5 12 12 12 6 0 8 3 5 7 -4 3 -2 12 4 20
6 7 9 13 5 13 -4 0 0 13 8 28 11 22 14 59 12 158 -4 143 -5 153 -42 256 -46
129 -150 304 -239 402 -20 21 -39 44 -43 50 -10 17 -178 156 -187 156 -5 0
-16 6 -24 14 -14 11 -50 31 -141 76 -49 24 -267 59 -282 45z"/>
<path d="M660 246 c7 -7 13 -7 20 0 6 6 3 10 -10 10 -13 0 -16 -4 -10 -10z"/>
<path d="M926 243 c-6 -14 -5 -15 5 -6 7 7 10 15 7 18 -3 3 -9 -2 -12 -12z"/>
<path d="M1220 246 c7 -7 13 -7 20 0 6 6 3 10 -10 10 -13 0 -16 -4 -10 -10z"/>
<path d="M1380 246 c7 -7 13 -7 20 0 6 6 3 10 -10 10 -13 0 -16 -4 -10 -10z"/>
<path d="M1530 256 c0 -2 8 -10 18 -17 15 -13 16 -12 3 4 -13 16 -21 21 -21
13z"/>
</g>
</svg>
